<?xml version="1.0" encoding="utf-8"?>
<!-- Uploaded to: SVG Repo, www.svgrepo.com, Generator: SVG Repo Mixer Tools -->
<svg fill="#000000" width="800px" height="800px" viewBox="0 0 32 32" version="1.1" xmlns="http://www.w3.org/2000/svg">
<title>perspective-dice-six</title>
<path d="M15.599 17.214h0.082c-0.124-0.274-0.281-0.539-0.463-0.776l-10.983-6.271c-0.405 0.107-0.668 0.506-0.668 1.128v9.84c0 1.034 0.726 2.291 1.621 2.808l9.168 5.294c0.499 0.288 0.945 0.285 1.243 0.047l-0-12.071zM7.682 22.448c-0.002 0.861-0.631 1.194-1.407 0.745s-1.403-1.511-1.401-2.372c0-0.002 0-0.004 0-0.006 0.002-0.861 0.631-1.194 1.407-0.745s1.403 1.511 1.401 2.372c0 0.002 0 0.004 0 0.006zM7.682 14.791c-0.002 0.861-0.631 1.194-1.407 0.745s-1.403-1.511-1.401-2.372c0-0.002 0-0.004 0-0.006 0.002-0.861 0.631-1.194 1.407-0.745s1.403 1.511 1.401 2.372c0 0.002 0 0.004 0 0.006zM11.176 20.615c-0.002 0.861-0.631 1.194-1.407 0.745s-1.403-1.511-1.401-2.372c0-0.002 0-0.004 0-0.006 0.002-0.861 0.631-1.194 1.407-0.745s1.403 1.511 1.401 2.372c0 0.002 0 0.004 0 0.006zM14.671 26.483c-0.002 0.861-0.631 1.194-1.407 0.745s-1.403-1.511-1.401-2.372c0-0.002 0-0.004 0-0.006 0.002-0.861 0.631-1.194 1.407-0.745s1.403 1.511 1.401 2.372c0 0.002 0 0.004 0 0.006zM14.671 18.826c-0.002 0.861-0.631 1.194-1.407 0.745s-1.403-1.511-1.401-2.372c0-0.002 0-0.004 0-0.006 0.002-0.861 0.631-1.194 1.407-0.745s1.403 1.511 1.401 2.372c0 0.002 0 0.004 0 0.006zM27.111 8.247l-9.531-5.514c-0.895-0.518-2.346-0.518-3.241 0l-9.531 5.514c-0.706 0.409-0.855 1.018-0.446 1.511l10.845 6.192c0.418 0.084 0.869 0.096 1.297 0.036l11.165-6.389c0.259-0.459 0.074-0.984-0.557-1.349zM14.578 3.913c0.779-0.462 2.041-0.462 2.82 0s0.779 1.211 0 1.673c-0.779 0.462-2.041 0.462-2.82 0s-0.779-1.211 0-1.673zM9.961 9.966c-0.779 0.462-2.041 0.462-2.82 0s-0.779-1.211 0-1.673c0.779-0.462 2.041-0.462 2.82 0s0.779 1.211 0 1.673zM10.873 12.18c-0.779-0.462-0.779-1.211 0-1.673s2.041-0.462 2.82 0c0.779 0.462 0.779 1.211 0 1.673s-2.041 0.462-2.82 0zM17.398 14.378c-0.779 0.462-2.041 0.462-2.82 0s-0.779-1.211 0-1.673c0.779-0.462 2.041-0.462 2.82 0s0.779 1.211 0 1.673zM18.282 7.784c-0.779-0.462-0.779-1.211 0-1.673s2.041-0.462 2.82 0c0.779 0.462 0.779 1.211 0 1.673s-2.041 0.462-2.82 0zM24.806 9.982c-0.779 0.462-2.041 0.462-2.82 0s-0.779-1.211 0-1.673c0.779-0.462 2.041-0.462 2.82 0s0.779 1.211 0 1.673zM27.558 10.14l-10.659 6.099c-0.323 0.365-0.586 0.817-0.748 1.279v11.526c0.267 0.456 0.815 0.558 1.447 0.193l9.168-5.294c0.895-0.517 1.621-1.774 1.621-2.808v-9.84c0-0.702-0.335-1.12-0.83-1.155zM20.092 24.856c0.002 0.861-0.626 1.923-1.401 2.372s-1.405 0.116-1.407-0.745c0-0.002 0-0.004 0-0.006-0.002-0.861 0.626-1.923 1.401-2.372s1.405-0.116 1.407 0.745c0 0.002 0 0.004 0 0.006zM20.092 17.199c0.002 0.861-0.626 1.923-1.401 2.372s-1.405 0.116-1.407-0.745c0-0.002 0-0.004 0-0.006-0.002-0.861 0.626-1.923 1.401-2.372s1.405-0.116 1.407 0.745c0 0.002 0 0.004 0 0.006zM27.081 20.821c0.002 0.861-0.626 1.923-1.401 2.372s-1.405 0.116-1.407-0.745c0-0.002 0-0.004 0-0.006-0.002-0.861 0.626-1.923 1.401-2.372s1.405-0.116 1.407 0.745c0 0.002 0 0.004 0 0.006zM27.081 13.164c0.002 0.861-0.626 1.923-1.401 2.372s-1.405 0.116-1.407-0.745c0-0.002 0-0.004 0-0.006-0.002-0.861 0.626-1.923 1.401-2.372s1.405-0.116 1.407 0.745c0 0.002 0 0.004 0 0.006z"></path>
</svg>